<svg width="16" height="14" viewBox="0 0 16 14" fill="none" xmlns="http://www.w3.org/2000/svg">
<g id="address-card 1" clip-path="url(#clip0_8180_4494)">
<path id="Vector" d="M5.8125 7C6.7791 7 7.5625 6.2166 7.5625 5.25C7.5625 4.2834 6.7791 3.5 5.8125 3.5C4.8459 3.5 4.0625 4.2834 4.0625 5.25C4.0625 6.21523 4.84727 7 5.8125 7ZM12.8125 6.34375H10.1875C9.8252 6.34375 9.53125 6.6377 9.53125 7C9.53125 7.3623 9.8252 7.65625 10.1875 7.65625H12.8125C13.1748 7.65625 13.4688 7.3623 13.4688 7C13.4688 6.6377 13.1762 6.34375 12.8125 6.34375ZM6.6875 7.875H4.9375C3.72891 7.875 2.75 8.85391 2.75 10.0625C2.75 10.3031 2.94688 10.5 3.1875 10.5H8.4375C8.67911 10.5 8.875 10.3041 8.875 10.0625C8.875 8.85391 7.89609 7.875 6.6875 7.875ZM12.8125 4.15625H10.1875C9.8252 4.15625 9.53125 4.4502 9.53125 4.8125C9.53125 5.1748 9.8252 5.46875 10.1875 5.46875H12.8125C13.1748 5.46875 13.4688 5.1748 13.4688 4.8125C13.4688 4.4502 13.1762 4.15625 12.8125 4.15625ZM14.125 0.875H1.875C0.908399 0.875 0.125 1.6584 0.125 2.625V11.375C0.125 12.3416 0.908399 13.125 1.875 13.125H14.125C15.0916 13.125 15.875 12.3416 15.875 11.375V2.625C15.875 1.6584 15.0902 0.875 14.125 0.875ZM14.5625 11.375C14.5625 11.6162 14.3662 11.8125 14.125 11.8125H1.875C1.63377 11.8125 1.4375 11.6162 1.4375 11.375V2.625C1.4375 2.38377 1.63377 2.1875 1.875 2.1875H14.125C14.3662 2.1875 14.5625 2.38377 14.5625 2.625V11.375Z" fill="#71717A"/>
</g>
<defs>
<clipPath id="clip0_8180_4494">
<rect width="15.75" height="14" fill="white" transform="translate(0.125)"/>
</clipPath>
</defs>
</svg>
