<svg width="15" height="16" viewBox="0 0 15 16" fill="none" xmlns="http://www.w3.org/2000/svg">
<g id="chart-simple 1" clip-path="url(#clip0_8180_4536)">
<path id="Vector" d="M8.125 1C8.95312 1 9.625 1.67156 9.625 2.5V13.5C9.625 14.3281 8.95312 15 8.125 15H7.125C6.29688 15 5.625 14.3281 5.625 13.5V2.5C5.625 1.67156 6.29688 1 7.125 1H8.125ZM8.125 2.5H7.125V13.5H8.125V2.5ZM3.125 7C3.95312 7 4.625 7.67187 4.625 8.5V13.5C4.625 14.3281 3.95312 15 3.125 15H2.125C1.29656 15 0.625 14.3281 0.625 13.5V8.5C0.625 7.67187 1.29656 7 2.125 7H3.125ZM3.125 8.5H2.125V13.5H3.125V8.5ZM10.625 4.5C10.625 3.67187 11.2969 3 12.125 3H13.125C13.9531 3 14.625 3.67187 14.625 4.5V13.5C14.625 14.3281 13.9531 15 13.125 15H12.125C11.2969 15 10.625 14.3281 10.625 13.5V4.5ZM12.125 13.5H13.125V4.5H12.125V13.5Z" fill="#71717A"/>
</g>
<defs>
<clipPath id="clip0_8180_4536">
<rect width="14" height="16" fill="white" transform="translate(0.625)"/>
</clipPath>
</defs>
</svg>
