<svg width="15" height="14" viewBox="0 0 15 14" fill="none" xmlns="http://www.w3.org/2000/svg">
<g id="house 1" clip-path="url(#clip0_8180_4470)">
<path id="Vector" d="M13.9184 6.36082C14.1639 6.56985 14.1955 6.93686 13.9865 7.18235C13.7774 7.42783 13.4104 7.45943 13.1649 7.2504L12.5694 6.74485V11.2778C12.5694 12.3521 11.6993 13.2223 10.625 13.2223H3.625C2.55118 13.2223 1.68055 12.3521 1.68055 11.2778V6.74485L1.0858 7.2504C0.840068 7.45943 0.472082 7.42783 0.263541 7.18235C0.0551205 6.93686 0.0852837 6.56985 0.33094 6.36082L6.74826 0.916374C6.96458 0.731651 7.28542 0.731651 7.50174 0.916374L13.9184 6.36082ZM3.625 12.0556H4.79167V8.36117C4.79167 7.82401 5.22674 7.38894 5.76389 7.38894H8.48611C9.02326 7.38894 9.45833 7.82401 9.45833 8.36117V12.0556H10.625C11.0552 12.0556 11.4028 11.708 11.4028 11.2778V5.75561L7.125 2.12606L2.84722 5.75561V11.2778C2.84722 11.708 3.19479 12.0556 3.625 12.0556ZM5.95833 12.0556H8.29167V8.55561H5.95833V12.0556Z" fill="#EF4444"/>
</g>
<defs>
<clipPath id="clip0_8180_4470">
<rect width="14" height="12.4444" fill="white" transform="translate(0.125 0.777832)"/>
</clipPath>
</defs>
</svg>
