<svg width="15" height="14" viewBox="0 0 15 14" fill="none" xmlns="http://www.w3.org/2000/svg">
<g id="layer-group 1" clip-path="url(#clip0_8180_4474)">
<path id="Vector" d="M6.44688 0.139234C6.66016 0.0473594 6.89258 0 7.125 0C7.35742 0 7.56523 0.0473594 7.80312 0.139234L13.5262 2.59191C13.8898 2.74805 14.125 3.10352 14.125 3.5C14.125 3.89648 13.8898 4.25195 13.5262 4.40781L7.80312 6.86055C7.56523 6.95352 7.35742 7 7.125 7C6.89258 7 6.66016 6.95352 6.44688 6.86055L0.723828 4.40781C0.360539 4.25195 0.125 3.89648 0.125 3.5C0.125 3.10352 0.360539 2.74805 0.723828 2.59191L6.44688 0.139234ZM7.125 1.3125C7.0457 1.3125 6.99102 1.32371 6.96367 1.34559L1.9368 3.5L6.96367 5.65469C6.99102 5.67656 7.0457 5.6875 7.125 5.6875C7.17969 5.6875 7.23438 5.67656 7.28633 5.65469L12.3121 3.5L7.28633 1.34559C7.23438 1.32371 7.17969 1.3125 7.125 1.3125ZM6.96367 9.15469C6.99102 9.17656 7.0457 9.1875 7.125 9.1875C7.17969 9.1875 7.23438 9.17656 7.28633 9.15469L12.4844 6.92617C12.3586 6.7375 12.334 6.48594 12.4434 6.26992C12.6074 5.94453 13.0012 5.81328 13.3238 5.97461L13.5727 6.10039C13.9117 6.26992 14.125 6.61445 14.125 6.9918C14.125 7.39375 13.8871 7.75469 13.5207 7.91055L7.80312 10.3605C7.56523 10.4535 7.35742 10.5 7.125 10.5C6.89258 10.5 6.66016 10.4535 6.44688 10.3605L0.748711 7.91875C0.370301 7.75742 0.125016 7.38555 0.125016 6.97266C0.125016 6.6418 0.28548 6.33008 0.555937 6.13594L0.837305 5.93359C1.13234 5.72305 1.54223 5.79141 1.75277 6.08672C1.93379 6.34102 1.90891 6.68008 1.68633 6.9043L6.96367 9.15469ZM1.75277 9.58672C1.93379 9.84102 1.90891 10.1801 1.68633 10.4043L6.96367 12.6547C6.99102 12.6766 7.0457 12.6875 7.125 12.6875C7.17969 12.6875 7.23438 12.6766 7.28633 12.6547L12.4844 10.4262C12.3586 10.2375 12.334 9.98594 12.4434 9.76992C12.6074 9.44453 13.0012 9.31328 13.3238 9.47461L13.5727 9.60039C13.9117 9.76992 14.125 10.1145 14.125 10.4918C14.125 10.8938 13.8871 11.2547 13.5207 11.4105L7.80312 13.8605C7.56523 13.9535 7.35742 14 7.125 14C6.89258 14 6.66016 13.9535 6.44688 13.8605L0.748711 11.4187C0.370301 11.2574 0.125027 10.8855 0.125027 10.4727C0.125027 10.1418 0.285508 9.83008 0.555937 9.63594L0.837305 9.43359C1.13234 9.22305 1.54223 9.29141 1.75277 9.58672Z" fill="#71717A"/>
</g>
<defs>
<clipPath id="clip0_8180_4474">
<rect width="14" height="14" fill="white" transform="translate(0.125)"/>
</clipPath>
</defs>
</svg>
