<svg width="13" height="12" viewBox="0 0 13 12" fill="none" xmlns="http://www.w3.org/2000/svg">
<g id="money-bill 1" clip-path="url(#clip0_8749_774)">
<path id="Vector" d="M4.6665 5.83325C4.6665 4.71034 5.54359 3.83325 6.6665 3.83325C7.77067 3.83325 8.6665 4.71034 8.6665 5.83325C8.6665 6.93742 7.77067 7.83325 6.6665 7.83325C5.54359 7.83325 4.6665 6.93742 4.6665 5.83325ZM0.666504 3.16659C0.666504 2.43013 1.26338 1.83325 1.99984 1.83325H11.3332C12.0686 1.83325 12.6665 2.43013 12.6665 3.16659V8.49992C12.6665 9.23534 12.0686 9.83325 11.3332 9.83325H1.99984C1.26338 9.83325 0.666504 9.23534 0.666504 8.49992V3.16659ZM1.6665 4.16659V7.49992C2.40296 7.49992 2.99984 8.09784 2.99984 8.83325H10.3332C10.3332 8.09784 10.9311 7.49992 11.6665 7.49992V4.16659C10.9311 4.16659 10.3332 3.56867 10.3332 2.83325H2.99984C2.99984 3.56867 2.40296 4.16659 1.6665 4.16659Z" fill="#FAFAFA"/>
</g>
<defs>
<clipPath id="clip0_8749_774">
<rect width="12" height="10.6667" fill="white" transform="translate(0.666504 0.5)"/>
</clipPath>
</defs>
</svg>
