<svg width="15" height="16" viewBox="0 0 15 16" fill="none" xmlns="http://www.w3.org/2000/svg">
<g id="plus 1" clip-path="url(#clip0_8180_4498)">
<path id="Vector" d="M14.375 7.99993C14.375 8.41556 14.0406 8.74993 13.625 8.74993H8.625V13.7499C8.625 14.164 8.28906 14.5002 7.875 14.5002C7.46094 14.5002 7.125 14.1656 7.125 13.7499V8.74993H2.125C1.71094 8.74993 1.375 8.41431 1.375 8.00024C1.375 7.58743 1.71094 7.24993 2.125 7.24993H7.125V2.24993C7.125 1.83587 7.46094 1.50024 7.875 1.50024C8.28906 1.50024 8.625 1.83587 8.625 2.24993V7.24993H13.625C14.0406 7.24993 14.375 7.58743 14.375 7.99993Z" fill="#EF4444"/>
</g>
<defs>
<clipPath id="clip0_8180_4498">
<rect width="14" height="16" fill="white" transform="translate(0.875)"/>
</clipPath>
</defs>
</svg>
