<svg width="15" height="14" viewBox="0 0 15 14" fill="none" xmlns="http://www.w3.org/2000/svg">
<g id="tape 1" clip-path="url(#clip0_8180_4482)">
<path id="Vector" d="M3.23611 7.00011C3.23611 5.69004 4.25938 4.66678 5.56944 4.66678C6.85764 4.66678 7.90278 5.69004 7.90278 7.00011C7.90278 8.2883 6.85764 9.33344 5.56944 9.33344C4.25938 9.33344 3.23611 8.2883 3.23611 7.00011ZM5.56944 8.16678C6.21354 8.16678 6.73611 7.64421 6.73611 7.00011C6.73611 6.35601 6.21354 5.83344 5.56944 5.83344C4.92535 5.83344 4.40278 6.35601 4.40278 7.00011C4.40278 7.64421 4.92535 8.16678 5.56944 8.16678ZM13.5417 11.2779C13.8649 11.2779 14.125 11.538 14.125 11.8612C14.125 12.1845 13.8649 12.4446 13.5417 12.4446H5.56944C2.56285 12.4446 0.125 10.0067 0.125 7.00011C0.125 3.99351 2.56285 1.55566 5.56944 1.55566C8.57604 1.55566 11.0139 3.99351 11.0139 7.00011C11.0139 8.73553 10.2021 10.2595 8.93819 11.2779H13.5417ZM5.56944 11.2779C7.93194 11.2779 9.84722 9.36261 9.84722 7.00011C9.84722 4.63761 7.93194 2.72233 5.56944 2.72233C3.20694 2.72233 1.29167 4.63761 1.29167 7.00011C1.29167 9.36261 3.20694 11.2779 5.56944 11.2779Z" fill="#71717A"/>
</g>
<defs>
<clipPath id="clip0_8180_4482">
<rect width="14" height="12.4444" fill="white" transform="translate(0.125 0.777832)"/>
</clipPath>
</defs>
</svg>
