<svg width="15" height="16" viewBox="0 0 15 16" fill="none" xmlns="http://www.w3.org/2000/svg">
<g id="user-vneck 1" clip-path="url(#clip0_8180_4490)">
<path id="Vector" d="M3.125 4C3.125 1.79094 4.91563 0 7.125 0C9.33438 0 11.125 1.79094 11.125 4C11.125 6.20937 9.33438 8 7.125 8C4.91563 8 3.125 6.20937 3.125 4ZM9.625 4C9.625 2.61937 8.50625 1.5 7.125 1.5C5.74375 1.5 4.625 2.61937 4.625 4C4.625 5.38125 5.74375 6.5 7.125 6.5C8.50625 6.5 9.625 5.38125 9.625 4ZM14.125 14.9719C14.125 15.5531 13.6781 15.9719 13.125 15.9719H1.125C0.572812 15.9719 0.125 15.5531 0.125 14.9719V14.7219C0.125 12.1313 2.04156 9.9625 4.55 9.56563L7.125 13L9.7 9.56563C12.2094 9.9625 14.125 12.1313 14.125 14.7219V14.9719ZM3.95625 11.2781C2.6625 11.8062 1.72937 13.0406 1.63312 14.4719H6.34688L3.95625 11.2781ZM10.2937 11.2781L7.875 14.4719H12.6156C12.5219 13.0406 11.5875 11.8062 10.2937 11.2781Z" fill="#71717A"/>
</g>
<defs>
<clipPath id="clip0_8180_4490">
<rect width="14" height="16" fill="white" transform="translate(0.125)"/>
</clipPath>
</defs>
</svg>
