<svg width="15" height="14" viewBox="0 0 15 14" fill="none" xmlns="http://www.w3.org/2000/svg">
<g id="wrench 1" clip-path="url(#clip0_8180_4486)">
<path id="Vector" d="M14.002 3.20162C13.9445 2.86994 13.6637 2.60689 13.332 2.51447C13.0006 2.4256 12.6452 2.51789 12.427 2.76056L10.8 4.36373L9.91133 4.21607L9.76436 3.33068L11.3708 1.72424C11.6101 1.48156 11.7058 1.12595 11.6135 0.797829C11.5212 0.466149 11.2547 0.209938 10.923 0.124352C9.47055 -0.234671 7.99453 0.182458 6.91445 1.23861C5.88578 2.26756 5.47563 3.73728 5.8002 5.15697L0.756641 10.1469C0.357422 10.5954 0.125 11.1586 0.125 11.7329C0.125 12.3071 0.357422 12.895 0.756641 13.3188C1.15586 13.7426 1.76891 13.9997 2.34258 13.9997C2.94086 13.9997 3.50469 13.7672 3.92852 13.3434L8.94336 8.33131C10.3584 8.65615 11.8309 8.24586 12.8672 7.21021C13.9309 6.17115 14.3574 4.63443 14.002 3.20162ZM11.9621 6.28599C11.1828 7.06529 10.0412 7.32861 9.00625 6.97642L8.62016 6.84654L3.05023 12.4137C2.7016 12.7659 2.08637 12.7659 1.76234 12.4137C1.58464 12.2394 1.48893 12.0069 1.48893 11.7575C1.48893 11.5114 1.58464 11.2754 1.76234 11.1012L7.33773 5.52857L7.21127 5.1422C6.80781 4.07935 7.0457 2.93912 7.84141 2.16638C8.3984 1.61267 9.12984 1.31189 9.86758 1.31189H9.89834L8.3582 2.8817L8.77164 5.35631L11.2463 5.77002L12.815 4.20459C12.8262 4.95162 12.5254 5.71998 11.9621 6.28599ZM2.50664 11.1313C2.26396 11.1313 2.09375 11.3261 2.09375 11.5688C2.09375 11.8115 2.28857 12.0063 2.50664 12.0063C2.72471 12.0063 2.91953 11.8115 2.91953 11.5688C2.94414 11.3501 2.77379 11.1313 2.50664 11.1313Z" fill="#71717A"/>
</g>
<defs>
<clipPath id="clip0_8180_4486">
<rect width="14" height="14" fill="white" transform="translate(0.125)"/>
</clipPath>
</defs>
</svg>
